<svg xmlns="http://www.w3.org/2000/svg" xmlns:xlink="http://www.w3.org/1999/xlink" width="470.847" height="470.847" viewBox="0 0 470.847 470.847">
  <defs>
    <radialGradient id="radial-gradient" cx="0.5" cy="0.5" r="0.5" gradientUnits="objectBoundingBox">
      <stop offset="0" stop-color="#fff" stop-opacity="0"/>
      <stop offset="1" stop-color="#fff" stop-opacity="0.251"/>
    </radialGradient>
  </defs>
  <g id="Group_2" data-name="Group 2" transform="translate(-725 -191)">
    <g id="Ellipse_1" data-name="Ellipse 1" transform="translate(793.924 259.924)" stroke="rgba(255,255,255,0.5)" stroke-width="3" fill="url(#radial-gradient)">
      <circle cx="166.5" cy="166.5" r="166.5" stroke="none"/>
      <circle cx="166.5" cy="166.5" r="165" fill="none"/>
    </g>
    <g id="Path_7" data-name="Path 7" transform="translate(725 191)" fill="none">
      <path d="M235.424,0C365.445,0,470.847,105.4,470.847,235.424s-105.4,235.424-235.424,235.424S0,365.445,0,235.424,105.4,0,235.424,0Z" stroke="none"/>
      <path d="M 235.4237060546875 1 C 219.5177001953125 1 203.6220092773438 2.6024169921875 188.1780700683594 5.76263427734375 C 173.1271667480469 8.842529296875 158.3226623535156 13.4381103515625 144.1757202148438 19.4217529296875 C 130.2853393554688 25.296875 116.8880615234375 32.56869506835938 104.3558959960938 41.03530883789062 C 91.94253540039062 49.42160034179688 80.26953125 59.05270385742188 69.6611328125 69.6611328125 C 59.05270385742188 80.26953125 49.42160034179688 91.94253540039062 41.03530883789062 104.3558959960938 C 32.56869506835938 116.8880615234375 25.296875 130.2853393554688 19.4217529296875 144.1757202148438 C 13.4381103515625 158.3226623535156 8.842529296875 173.1271667480469 5.76263427734375 188.1780700683594 C 2.6024169921875 203.6220092773438 1 219.5177001953125 1 235.4237060546875 C 1 251.3297119140625 2.6024169921875 267.2254028320312 5.76263427734375 282.6693115234375 C 8.842529296875 297.7201538085938 13.4381103515625 312.5247192382812 19.4217529296875 326.671630859375 C 25.296875 340.56201171875 32.56869506835938 353.9593505859375 41.03530883789062 366.4915161132812 C 49.42160034179688 378.9048767089844 59.05270385742188 390.577880859375 69.6611328125 401.186279296875 C 80.26953125 411.7947082519531 91.94253540039062 421.4258117675781 104.3558959960938 429.8121337890625 C 116.8880615234375 438.2786560058594 130.2853393554688 445.550537109375 144.1757202148438 451.4256591796875 C 158.3226623535156 457.4093017578125 173.1271667480469 462.0048828125 188.1780700683594 465.0847778320312 C 203.6220092773438 468.2449951171875 219.5177001953125 469.847412109375 235.4237060546875 469.847412109375 C 251.3297119140625 469.847412109375 267.2254028320312 468.2449951171875 282.6693115234375 465.0847778320312 C 297.7201538085938 462.0048828125 312.5247192382812 457.4093017578125 326.671630859375 451.4256591796875 C 340.56201171875 445.550537109375 353.9593505859375 438.2786560058594 366.4915161132812 429.8121337890625 C 378.9048767089844 421.4258117675781 390.577880859375 411.7947082519531 401.186279296875 401.186279296875 C 411.7947082519531 390.577880859375 421.4258117675781 378.9048767089844 429.8121337890625 366.4915161132812 C 438.2786560058594 353.9593505859375 445.550537109375 340.56201171875 451.4256591796875 326.671630859375 C 457.4093017578125 312.5247192382812 462.0048828125 297.7201538085938 465.0847778320312 282.6693115234375 C 468.2449951171875 267.2254028320312 469.847412109375 251.3297119140625 469.847412109375 235.4237060546875 C 469.847412109375 219.5177001953125 468.2449951171875 203.6220092773438 465.0847778320312 188.1780700683594 C 462.0048828125 173.1271667480469 457.4093017578125 158.3226623535156 451.4256591796875 144.1757202148438 C 445.550537109375 130.2853393554688 438.2786560058594 116.8880615234375 429.8121337890625 104.3558959960938 C 421.4258117675781 91.94253540039062 411.7947082519531 80.26953125 401.186279296875 69.6611328125 C 390.577880859375 59.05270385742188 378.9048767089844 49.42160034179688 366.4915161132812 41.03530883789062 C 353.9593505859375 32.56869506835938 340.56201171875 25.296875 326.671630859375 19.4217529296875 C 312.5247192382812 13.4381103515625 297.7201538085938 8.842529296875 282.6693115234375 5.76263427734375 C 267.2254028320312 2.6024169921875 251.3297119140625 1 235.4237060546875 1 M 235.4237060546875 0 C 365.444580078125 0 470.847412109375 105.4027709960938 470.847412109375 235.4237060546875 C 470.847412109375 365.444580078125 365.444580078125 470.847412109375 235.4237060546875 470.847412109375 C 105.4027709960938 470.847412109375 0 365.444580078125 0 235.4237060546875 C 0 105.4027709960938 105.4027709960938 0 235.4237060546875 0 Z" stroke="none" fill="rgba(255,255,255,0.25)"/>
    </g>
    <g id="Group_1" data-name="Group 1" transform="translate(-2877.583 -1731.679)">
      <g id="Path_1" data-name="Path 1" fill="#2eefc9">
        <path d="M3642.873,2181.834l-4.271,11.658a1.962,1.962,0,0,1-1.843,1.287h-4.287a1.96,1.96,0,0,1-1.843-2.635l26.6-72.627a3.093,3.093,0,0,1,2.9-2.026h3.677a3.088,3.088,0,0,1,2.9,2.026l26.609,72.63a1.962,1.962,0,0,1-1.843,2.635h-4.287a1.965,1.965,0,0,1-1.842-1.288l-4.272-11.658a1.962,1.962,0,0,0-1.843-1.288h-34.522A1.953,1.953,0,0,0,3642.873,2181.834Zm18.429-50.313-14.7,40.12a.715.715,0,0,0,.671.963h29.392a.717.717,0,0,0,.671-.963l-14.7-40.12A.713.713,0,0,0,3661.3,2131.521Z" stroke="none"/>
        <path d="M 3691.47705078125 2194.781982421875 C 3692.841064453125 2194.781982421875 3693.787109375 2193.427001953125 3693.320068359375 2192.14697265625 L 3666.7109375 2119.51708984375 C 3666.264892578125 2118.298095703125 3665.10498046875 2117.490966796875 3663.80908203125 2117.490966796875 L 3660.132080078125 2117.490966796875 C 3658.8369140625 2117.490966796875 3657.677978515625 2118.301025390625 3657.23095703125 2119.51708984375 L 3630.62890625 2192.14404296875 C 3630.159912109375 2193.424072265625 3631.10693359375 2194.779052734375 3632.471923828125 2194.779052734375 L 3636.759033203125 2194.779052734375 C 3637.58203125 2194.779052734375 3638.318115234375 2194.26611328125 3638.60205078125 2193.491943359375 L 3642.873046875 2181.833984375 C 3643.152099609375 2181.06201171875 3643.887939453125 2180.548095703125 3644.7109375 2180.548095703125 L 3679.23291015625 2180.548095703125 C 3680.056884765625 2180.548095703125 3680.79296875 2181.06201171875 3681.075927734375 2181.8359375 L 3685.347900390625 2193.493896484375 C 3685.632080078125 2194.26611328125 3686.366943359375 2194.781982421875 3687.18994140625 2194.781982421875 L 3691.47705078125 2194.781982421875 M 3661.971435546875 2131.050048828125 C 3662.249755859375 2131.050048828125 3662.528564453125 2131.20703125 3662.64306640625 2131.52099609375 L 3677.339111328125 2171.64111328125 C 3677.510009765625 2172.10791015625 3677.1640625 2172.60400390625 3676.66796875 2172.60400390625 L 3647.27587890625 2172.60400390625 C 3646.778076171875 2172.60400390625 3646.431884765625 2172.10791015625 3646.60498046875 2171.64111328125 L 3661.302001953125 2131.52099609375 C 3661.4150390625 2131.20703125 3661.693115234375 2131.050048828125 3661.971435546875 2131.050048828125 M 3691.47705078125 2195.781982421875 L 3687.18994140625 2195.781982421875 C 3685.954345703125 2195.781982421875 3684.837158203125 2195.001220703125 3684.409423828125 2193.83935546875 L 3680.136962890625 2182.179931640625 C 3679.998779296875 2181.8017578125 3679.635498046875 2181.548095703125 3679.23291015625 2181.548095703125 L 3644.7109375 2181.548095703125 C 3644.3095703125 2181.548095703125 3643.94873046875 2181.799560546875 3643.8134765625 2182.173828125 L 3639.541015625 2193.8359375 C 3639.11474609375 2194.998291015625 3637.996826171875 2195.779052734375 3636.759033203125 2195.779052734375 L 3632.471923828125 2195.779052734375 C 3631.504150390625 2195.779052734375 3630.595947265625 2195.305908203125 3630.04248046875 2194.513671875 C 3629.4892578125 2193.7216796875 3629.357421875 2192.707275390625 3629.68994140625 2191.800048828125 L 3656.2919921875 2119.173095703125 C 3656.8818359375 2117.568359375 3658.4248046875 2116.490966796875 3660.132080078125 2116.490966796875 L 3663.80908203125 2116.490966796875 C 3665.519287109375 2116.490966796875 3667.06298828125 2117.569091796875 3667.650146484375 2119.17333984375 L 3694.259033203125 2191.802978515625 C 3694.5908203125 2192.712158203125 3694.4580078125 2193.726806640625 3693.904052734375 2194.518310546875 C 3693.3505859375 2195.3095703125 3692.443359375 2195.781982421875 3691.47705078125 2195.781982421875 Z M 3647.68359375 2171.60400390625 L 3676.260498046875 2171.60400390625 L 3661.972412109375 2132.597900390625 L 3647.68359375 2171.60400390625 Z" stroke="none" fill="rgba(0,0,0,0.15)"/>
      </g>
      <g id="Path_2" data-name="Path 2" fill="#2eefc9">
        <path d="M3724.124,2195.61v-.823H3722c-6.8-2.991-11.718-8.894-13.942-17.034a1.984,1.984,0,0,1,1.517-2.452l3.9-.815a1.99,1.99,0,0,1,2.323,1.414c1.6,5.593,5.894,13.162,17.378,13.162,7.1,0,14.747-4.054,14.747-12.956,0-7.926-6.285-11.355-16.632-16.063-9.676-4.4-20.642-9.39-20.642-22.263,0-8.188,6.091-21.177,22.436-21.177,10.992,0,19.171,5.112,23.768,14.815a1.979,1.979,0,0,1-1.066,2.673l-3.691,1.487a1.976,1.976,0,0,1-2.516-.949c-3.28-6.776-8.693-10.077-16.492-10.077-14.095,0-14.489,13.1-14.489,13.23,0,7.382,6.075,10.52,15.986,15.029,9.484,4.316,21.287,9.686,21.287,23.3,0,13.726-11.415,20.905-22.694,20.905a28.466,28.466,0,0,1-9.043-1.4Z" stroke="none"/>
        <path d="M 3733.169921875 2197.013916015625 C 3744.448974609375 2197.013916015625 3755.864013671875 2189.8349609375 3755.864013671875 2176.10888671875 C 3755.864013671875 2162.4970703125 3744.06103515625 2157.126953125 3734.576904296875 2152.81103515625 C 3724.666015625 2148.302001953125 3718.591064453125 2145.1640625 3718.591064453125 2137.781982421875 C 3718.591064453125 2137.64990234375 3718.985107421875 2124.552001953125 3733.080078125 2124.552001953125 C 3740.87890625 2124.552001953125 3746.2919921875 2127.85302734375 3749.572021484375 2134.62890625 C 3750.019775390625 2135.556640625 3751.131103515625 2135.963134765625 3752.087890625 2135.577880859375 L 3755.779052734375 2134.091064453125 C 3756.83203125 2133.6689453125 3757.3330078125 2132.44189453125 3756.844970703125 2131.41796875 C 3752.248046875 2121.715087890625 3744.069091796875 2116.60302734375 3733.076904296875 2116.60302734375 C 3716.73193359375 2116.60302734375 3710.64111328125 2129.592041015625 3710.64111328125 2137.780029296875 C 3710.64111328125 2150.653076171875 3721.60693359375 2155.64208984375 3731.282958984375 2160.04296875 C 3741.6298828125 2164.7509765625 3747.9150390625 2168.179931640625 3747.9150390625 2176.10595703125 C 3747.9150390625 2185.008056640625 3740.27001953125 2189.06201171875 3733.16796875 2189.06201171875 C 3721.68408203125 2189.06201171875 3717.39208984375 2181.492919921875 3715.7900390625 2175.89990234375 C 3715.5009765625 2174.889892578125 3714.494140625 2174.26953125 3713.467041015625 2174.486083984375 L 3709.570068359375 2175.301025390625 C 3708.4580078125 2175.533935546875 3707.7529296875 2176.656005859375 3708.052978515625 2177.7529296875 C 3710.277099609375 2185.89306640625 3715.194091796875 2191.7958984375 3721.9951171875 2194.787109375 L 3724.1240234375 2194.787109375 L 3724.1240234375 2195.610107421875 L 3724.126953125 2195.610107421875 C 3726.887939453125 2196.531982421875 3729.91796875 2197.013916015625 3733.169921875 2197.013916015625 M 3733.169921875 2198.013916015625 C 3729.910888671875 2198.013916015625 3726.815185546875 2197.541748046875 3723.966064453125 2196.610107421875 L 3723.126953125 2196.610107421875 L 3723.12451171875 2195.787109375 L 3721.784912109375 2195.787109375 L 3721.592529296875 2195.702392578125 C 3718.04638671875 2194.142822265625 3714.999267578125 2191.832763671875 3712.535400390625 2188.8359375 C 3710.06005859375 2185.825439453125 3708.227294921875 2182.185302734375 3707.08837890625 2178.0166015625 C 3706.87158203125 2177.224365234375 3706.98974609375 2176.399658203125 3707.420654296875 2175.6943359375 C 3707.8505859375 2174.9912109375 3708.559326171875 2174.490966796875 3709.364990234375 2174.322265625 L 3713.262451171875 2173.50732421875 C 3713.4638671875 2173.464599609375 3713.671630859375 2173.44287109375 3713.878173828125 2173.44287109375 C 3715.2021484375 2173.44287109375 3716.3837890625 2174.340087890625 3716.75146484375 2175.624755859375 C 3718.376708984375 2181.29833984375 3722.5439453125 2188.06201171875 3733.16796875 2188.06201171875 C 3736.705810546875 2188.06201171875 3740.1435546875 2186.991943359375 3742.599853515625 2185.1259765625 C 3743.94384765625 2184.10498046875 3744.992919921875 2182.86279296875 3745.7177734375 2181.43359375 C 3746.51220703125 2179.8671875 3746.9150390625 2178.07470703125 3746.9150390625 2176.10595703125 C 3746.9150390625 2172.64599609375 3745.655517578125 2170.03173828125 3742.831298828125 2167.62939453125 C 3739.95166015625 2165.180419921875 3735.52978515625 2163.073974609375 3730.868896484375 2160.953125 C 3725.8896484375 2158.6884765625 3720.740966796875 2156.346923828125 3716.680419921875 2152.845947265625 C 3711.943603515625 2148.761962890625 3709.64111328125 2143.833740234375 3709.64111328125 2137.780029296875 C 3709.64111328125 2135.508544921875 3710.077880859375 2133.055908203125 3710.904052734375 2130.6875 C 3711.837158203125 2128.012451171875 3713.202392578125 2125.587646484375 3714.9619140625 2123.480224609375 C 3717.96240234375 2119.88671875 3723.540771484375 2115.60302734375 3733.076904296875 2115.60302734375 C 3744.4482421875 2115.60302734375 3752.979736328125 2120.923583984375 3757.748779296875 2130.98974609375 C 3758.10009765625 2131.72705078125 3758.128662109375 2132.557373046875 3757.828369140625 2133.326171875 C 3757.528076171875 2134.09521484375 3756.916748046875 2134.71240234375 3756.151123046875 2135.019287109375 L 3752.46142578125 2136.50537109375 C 3752.103515625 2136.649658203125 3751.7265625 2136.72265625 3751.34130859375 2136.72265625 C 3750.2060546875 2136.72265625 3749.157958984375 2136.071533203125 3748.67138671875 2135.063720703125 C 3747.103271484375 2131.82421875 3745.084228515625 2129.481689453125 3742.49951171875 2127.90283203125 C 3739.9091796875 2126.321044921875 3736.828125 2125.552001953125 3733.080078125 2125.552001953125 C 3730.076904296875 2125.552001953125 3727.50830078125 2126.180908203125 3725.44580078125 2127.4208984375 C 3723.80859375 2128.4052734375 3722.471923828125 2129.78369140625 3721.47265625 2131.518310546875 C 3719.71923828125 2134.5615234375 3719.595703125 2137.649169921875 3719.591064453125 2137.79296875 C 3719.59375 2140.967529296875 3720.80078125 2143.37646484375 3723.503173828125 2145.60205078125 C 3726.19384765625 2147.81787109375 3730.297607421875 2149.765625 3734.990966796875 2151.90087890625 C 3739.771728515625 2154.076416015625 3745.187744140625 2156.541015625 3749.432861328125 2160.218994140625 C 3751.7861328125 2162.258056640625 3753.530029296875 2164.437744140625 3754.7646484375 2166.8828125 C 3756.15771484375 2169.642333984375 3756.864013671875 2172.746337890625 3756.864013671875 2176.10888671875 C 3756.864013671875 2179.55322265625 3756.171630859375 2182.745849609375 3754.80615234375 2185.597900390625 C 3753.53857421875 2188.245361328125 3751.713623046875 2190.56103515625 3749.38232421875 2192.480712890625 C 3747.19970703125 2194.277587890625 3744.645751953125 2195.67236328125 3741.791015625 2196.626220703125 C 3739.03515625 2197.547119140625 3736.134521484375 2198.013916015625 3733.169921875 2198.013916015625 Z" stroke="none" fill="rgba(0,0,0,0.15)"/>
      </g>
      <g id="Path_3" data-name="Path 3" fill="#2eefc9">
        <path d="M3799.055,2195.1h-3.972a1.988,1.988,0,0,1-1.988-1.987v-65.686a1.988,1.988,0,0,0-1.988-1.987h-19.4a1.987,1.987,0,0,1-1.987-1.987v-3.972a1.988,1.988,0,0,1,1.987-1.987h50.821a1.987,1.987,0,0,1,1.987,1.987v3.975a1.988,1.988,0,0,1-1.987,1.987h-19.5a1.988,1.988,0,0,0-1.987,1.987v65.685A1.981,1.981,0,0,1,3799.055,2195.1Z" stroke="none"/>
        <path d="M 3799.064453125 2195.096923828125 C 3800.156005859375 2195.096923828125 3801.0419921875 2194.208740234375 3801.0419921875 2193.112060546875 L 3801.0419921875 2127.427001953125 C 3801.0419921875 2126.3310546875 3801.931884765625 2125.43994140625 3803.029052734375 2125.43994140625 L 3822.528076171875 2125.43994140625 C 3823.625 2125.43994140625 3824.514892578125 2124.549072265625 3824.514892578125 2123.452880859375 L 3824.514892578125 2119.47802734375 C 3824.514892578125 2118.381103515625 3823.625 2117.490966796875 3822.528076171875 2117.490966796875 L 3771.70703125 2117.490966796875 C 3770.610107421875 2117.490966796875 3769.719970703125 2118.381103515625 3769.719970703125 2119.47802734375 L 3769.719970703125 2123.449951171875 C 3769.719970703125 2124.548095703125 3770.610107421875 2125.43701171875 3771.70703125 2125.43701171875 L 3791.10693359375 2125.43701171875 C 3792.205078125 2125.43701171875 3793.094970703125 2126.327880859375 3793.094970703125 2127.424072265625 L 3793.094970703125 2193.110107421875 C 3793.094970703125 2194.20703125 3793.985107421875 2195.096923828125 3795.0830078125 2195.096923828125 L 3799.054931640625 2195.096923828125 C 3799.05810546875 2195.096923828125 3799.06103515625 2195.096923828125 3799.064453125 2195.096923828125 M 3799.064453125 2196.096923828125 L 3795.0830078125 2196.096923828125 C 3793.435302734375 2196.096923828125 3792.094970703125 2194.757080078125 3792.094970703125 2193.110107421875 L 3792.094970703125 2127.424072265625 C 3792.094970703125 2126.8798828125 3791.65185546875 2126.43701171875 3791.10693359375 2126.43701171875 L 3771.70703125 2126.43701171875 C 3770.06005859375 2126.43701171875 3768.719970703125 2125.096923828125 3768.719970703125 2123.449951171875 L 3768.719970703125 2119.47802734375 C 3768.719970703125 2117.8310546875 3770.06005859375 2116.490966796875 3771.70703125 2116.490966796875 L 3822.528076171875 2116.490966796875 C 3824.175048828125 2116.490966796875 3825.514892578125 2117.8310546875 3825.514892578125 2119.47802734375 L 3825.514892578125 2123.452880859375 C 3825.514892578125 2125.099853515625 3824.175048828125 2126.43994140625 3822.528076171875 2126.43994140625 L 3803.029052734375 2126.43994140625 C 3802.48486328125 2126.43994140625 3802.0419921875 2126.8828125 3802.0419921875 2127.427001953125 L 3802.0419921875 2193.112060546875 C 3802.0419921875 2194.7578125 3800.706298828125 2196.096923828125 3799.064453125 2196.096923828125 Z" stroke="none" fill="rgba(0,0,0,0.15)"/>
      </g>
      <g id="Path_4" data-name="Path 4" fill="#2eefc9">
        <path d="M3956.218,2189.862a64.609,64.609,0,0,1-22.486,8.316,75.442,75.442,0,0,1-50.3-9.129,64.462,64.462,0,0,1-17.067-14.376.742.742,0,0,0-.746-.248,28.646,28.646,0,0,1-6.721.822h-14.6a.773.773,0,0,0-.775.774v16.362a2.064,2.064,0,0,1-2.064,2.066h-3.844a2.064,2.064,0,0,1-2.064-2.066v-73.426a2.064,2.064,0,0,1,2.064-2.066h21.28a29.013,29.013,0,0,1,29.012,29.013v.33a28.976,28.976,0,0,1-13.369,24.385.774.774,0,0,0-.17,1.172c8.912,9.817,21.566,16.322,34.8,18.84,14.672,2.839,30.5.832,43.287-6.739a2.06,2.06,0,0,1,2.793.625l1.591,2.447A2.076,2.076,0,0,1,3956.218,2189.862Zm-76.278-43.63v-.331a21.04,21.04,0,0,0-21.039-21.039h-14.6a.773.773,0,0,0-.775.774V2166.5a.773.773,0,0,0,.775.774h14.6A21.041,21.041,0,0,0,3879.94,2146.232Zm20.121,2.976v-30.236a2.065,2.065,0,0,1,2.066-2.065h3.843a2.064,2.064,0,0,1,2.064,2.065v30.236a16.473,16.473,0,0,0,16.193,16.7h2.712a16.47,16.47,0,0,0,16.191-16.7v-30.236a2.064,2.064,0,0,1,2.064-2.065h3.843a2.064,2.064,0,0,1,2.065,2.065v30.233c0,13.6-10.837,24.674-24.163,24.674h-2.712C3910.9,2173.879,3900.061,2162.809,3900.061,2149.208Z" stroke="none"/>
        <path d="M 3921.36083984375 2199.2353515625 C 3925.4990234375 2199.2353515625 3929.64111328125 2198.888916015625 3933.73193359375 2198.177978515625 C 3941.616943359375 2196.81298828125 3949.321044921875 2194.051025390625 3956.218017578125 2189.862060546875 C 3957.2060546875 2189.260986328125 3957.48193359375 2187.93408203125 3956.84912109375 2186.964111328125 L 3955.258056640625 2184.51708984375 C 3954.647705078125 2183.5830078125 3953.424560546875 2183.324462890625 3952.465087890625 2183.89208984375 C 3939.67919921875 2191.462646484375 3923.8505859375 2193.469970703125 3909.177978515625 2190.631103515625 C 3895.93994140625 2188.113037109375 3883.285888671875 2181.60791015625 3874.3740234375 2171.791015625 C 3874.051025390625 2171.43408203125 3874.138916015625 2170.8798828125 3874.5439453125 2170.618896484375 C 3882.571044921875 2165.455078125 3887.9130859375 2156.467041015625 3887.9130859375 2146.23388671875 L 3887.9130859375 2145.904052734375 C 3887.9130859375 2129.881103515625 3874.924072265625 2116.89111328125 3858.90087890625 2116.89111328125 L 3837.62109375 2116.89111328125 C 3836.47998046875 2116.89111328125 3835.556884765625 2117.81591796875 3835.556884765625 2118.95703125 L 3835.556884765625 2192.383056640625 C 3835.556884765625 2193.52490234375 3836.47998046875 2194.448974609375 3837.62109375 2194.448974609375 L 3841.465087890625 2194.448974609375 C 3842.60498046875 2194.448974609375 3843.529052734375 2193.52490234375 3843.529052734375 2192.383056640625 L 3843.529052734375 2176.02099609375 C 3843.529052734375 2175.592041015625 3843.875 2175.2470703125 3844.303955078125 2175.2470703125 L 3858.90087890625 2175.2470703125 C 3861.218994140625 2175.2470703125 3863.4619140625 2174.945068359375 3865.6220703125 2174.425048828125 C 3865.8994140625 2174.35888671875 3866.183837890625 2174.4541015625 3866.367919921875 2174.673095703125 C 3871.16796875 2180.467041015625 3877.031982421875 2185.297119140625 3883.43505859375 2189.049072265625 C 3890.97607421875 2193.467041015625 3899.27197265625 2196.45703125 3907.806884765625 2198.007080078125 C 3912.27490234375 2198.81787109375 3916.815673828125 2199.2353515625 3921.36083984375 2199.2353515625 M 3844.303955078125 2124.862060546875 L 3858.90087890625 2124.862060546875 C 3870.52001953125 2124.862060546875 3879.93994140625 2134.281982421875 3879.93994140625 2145.90087890625 L 3879.93994140625 2146.23193359375 C 3879.93994140625 2157.85302734375 3870.52001953125 2167.27392578125 3858.90087890625 2167.27392578125 L 3844.303955078125 2167.27392578125 C 3843.875 2167.27392578125 3843.529052734375 2166.927978515625 3843.529052734375 2166.5 L 3843.529052734375 2125.635986328125 C 3843.529052734375 2125.2080078125 3843.875 2124.862060546875 3844.303955078125 2124.862060546875 M 3926.93896484375 2173.87890625 C 3940.264892578125 2173.87890625 3951.10205078125 2162.80908203125 3951.10205078125 2149.205078125 L 3951.10205078125 2118.971923828125 C 3951.10205078125 2117.8310546875 3950.178955078125 2116.906982421875 3949.037109375 2116.906982421875 L 3945.194091796875 2116.906982421875 C 3944.053955078125 2116.906982421875 3943.1298828125 2117.8310546875 3943.1298828125 2118.971923828125 L 3943.1298828125 2149.2080078125 C 3943.1298828125 2158.4169921875 3935.866943359375 2165.908935546875 3926.93896484375 2165.908935546875 L 3924.22705078125 2165.908935546875 C 3915.300048828125 2165.908935546875 3908.033935546875 2158.4169921875 3908.033935546875 2149.2080078125 L 3908.033935546875 2118.971923828125 C 3908.033935546875 2117.8310546875 3907.110107421875 2116.906982421875 3905.969970703125 2116.906982421875 L 3902.126953125 2116.906982421875 C 3900.985107421875 2116.906982421875 3900.06103515625 2117.8310546875 3900.06103515625 2118.971923828125 L 3900.06103515625 2149.2080078125 C 3900.06103515625 2162.80908203125 3910.90087890625 2173.87890625 3924.22705078125 2173.87890625 L 3926.93896484375 2173.87890625 M 3921.36083984375 2200.2353515625 C 3916.799072265625 2200.2353515625 3912.1787109375 2199.816650390625 3907.62841796875 2198.990966796875 C 3903.284912109375 2198.2021484375 3899.004150390625 2197.0419921875 3894.90478515625 2195.542724609375 C 3890.729736328125 2194.015625 3886.70068359375 2192.121337890625 3882.929443359375 2189.911865234375 C 3876.2265625 2185.984375 3870.430419921875 2181.11376953125 3865.7001953125 2175.434326171875 C 3863.41162109375 2175.973388671875 3861.1240234375 2176.2470703125 3858.90087890625 2176.2470703125 L 3844.529052734375 2176.2470703125 L 3844.529052734375 2192.383056640625 C 3844.529052734375 2194.07373046875 3843.154541015625 2195.448974609375 3841.465087890625 2195.448974609375 L 3837.62109375 2195.448974609375 C 3835.931396484375 2195.448974609375 3834.556884765625 2194.07373046875 3834.556884765625 2192.383056640625 L 3834.556884765625 2118.95703125 C 3834.556884765625 2117.2666015625 3835.931396484375 2115.89111328125 3837.62109375 2115.89111328125 L 3858.90087890625 2115.89111328125 C 3862.9521484375 2115.89111328125 3866.882568359375 2116.684814453125 3870.58349609375 2118.250244140625 C 3874.1572265625 2119.761962890625 3877.366943359375 2121.92578125 3880.122802734375 2124.681884765625 C 3882.878662109375 2127.43798828125 3885.04248046875 2130.6474609375 3886.55419921875 2134.221435546875 C 3888.119384765625 2137.92236328125 3888.9130859375 2141.852783203125 3888.9130859375 2145.904052734375 L 3888.9130859375 2146.23388671875 C 3888.9130859375 2148.828125 3888.578857421875 2151.404296875 3887.919677734375 2153.89111328125 C 3887.2802734375 2156.302490234375 3886.33544921875 2158.632568359375 3885.11083984375 2160.81640625 C 3882.746337890625 2165.033935546875 3879.357177734375 2168.661376953125 3875.298828125 2171.321044921875 C 3879.547119140625 2175.9521484375 3884.7021484375 2179.903076171875 3890.624755859375 2183.06591796875 C 3896.448974609375 2186.176513671875 3902.754150390625 2188.391357421875 3909.36474609375 2189.648681640625 C 3913.523193359375 2190.453369140625 3917.76953125 2190.86083984375 3921.989013671875 2190.86083984375 C 3932.94287109375 2190.86083984375 3943.30517578125 2188.153564453125 3951.95556640625 2183.03173828125 C 3952.441162109375 2182.74462890625 3952.991455078125 2182.593505859375 3953.5478515625 2182.593505859375 C 3954.579833984375 2182.593505859375 3955.5322265625 2183.108154296875 3956.09521484375 2183.97021484375 L 3957.6875 2186.4189453125 C 3958.141357421875 2187.11474609375 3958.296142578125 2187.98193359375 3958.111328125 2188.796630859375 C 3957.92724609375 2189.607666015625 3957.439453125 2190.28955078125 3956.73779296875 2190.71630859375 C 3953.29443359375 2192.807861328125 3949.57763671875 2194.59130859375 3945.68994140625 2196.017822265625 C 3941.9072265625 2197.40576171875 3937.941162109375 2198.464111328125 3933.902587890625 2199.163330078125 C 3929.81005859375 2199.87451171875 3925.59033203125 2200.2353515625 3921.36083984375 2200.2353515625 Z M 3844.529052734375 2166.27392578125 L 3858.90087890625 2166.27392578125 C 3861.6064453125 2166.27392578125 3864.230712890625 2165.744140625 3866.700439453125 2164.699462890625 C 3869.086669921875 2163.68994140625 3871.229736328125 2162.24462890625 3873.0703125 2160.40380859375 C 3874.9111328125 2158.562744140625 3876.356201171875 2156.41943359375 3877.365478515625 2154.032958984375 C 3878.41015625 2151.562744140625 3878.93994140625 2148.93798828125 3878.93994140625 2146.23193359375 L 3878.93994140625 2145.90087890625 C 3878.93994140625 2143.1953125 3878.41015625 2140.5712890625 3877.365478515625 2138.101318359375 C 3876.356201171875 2135.71533203125 3874.9111328125 2133.572265625 3873.070556640625 2131.7314453125 C 3871.229736328125 2129.890869140625 3869.086669921875 2128.44580078125 3866.700439453125 2127.4365234375 C 3864.230712890625 2126.391845703125 3861.6064453125 2125.862060546875 3858.90087890625 2125.862060546875 L 3844.529052734375 2125.862060546875 L 3844.529052734375 2166.27392578125 Z M 3926.93896484375 2174.87890625 L 3924.22705078125 2174.87890625 C 3910.3505859375 2174.87890625 3899.06103515625 2163.363037109375 3899.06103515625 2149.2080078125 L 3899.06103515625 2118.971923828125 C 3899.06103515625 2117.281982421875 3900.436279296875 2115.906982421875 3902.126953125 2115.906982421875 L 3905.969970703125 2115.906982421875 C 3907.659423828125 2115.906982421875 3909.033935546875 2117.281982421875 3909.033935546875 2118.971923828125 L 3909.033935546875 2149.2080078125 C 3909.033935546875 2157.865478515625 3915.849609375 2164.908935546875 3924.22705078125 2164.908935546875 L 3926.93896484375 2164.908935546875 C 3935.315185546875 2164.908935546875 3942.1298828125 2157.865478515625 3942.1298828125 2149.2080078125 L 3942.1298828125 2118.971923828125 C 3942.1298828125 2117.281982421875 3943.50439453125 2115.906982421875 3945.194091796875 2115.906982421875 L 3949.037109375 2115.906982421875 C 3950.72705078125 2115.906982421875 3952.10205078125 2117.281982421875 3952.10205078125 2118.971923828125 L 3952.10205078125 2149.205078125 C 3952.10205078125 2163.361572265625 3940.81396484375 2174.87890625 3926.93896484375 2174.87890625 Z" stroke="none" fill="rgba(0,0,0,0.15)"/>
      </g>
      <g id="Path_5" data-name="Path 5" fill="#2eefc9">
        <path d="M3982.331,2139.282l-3.934,53.706a1.947,1.947,0,0,1-1.941,1.8h-4.065a1.947,1.947,0,0,1-1.941-2.088l5.374-73.418a1.946,1.946,0,0,1,1.941-1.8h2.873a1.95,1.95,0,0,1,1.754,1.1l24.318,50.612a.575.575,0,0,0,1.035,0l24.317-50.612a1.949,1.949,0,0,1,1.755-1.1h2.873a1.946,1.946,0,0,1,1.941,1.8l5.368,73.418a1.946,1.946,0,0,1-1.941,2.088h-4.065a1.945,1.945,0,0,1-1.94-1.8l-3.931-53.706a.575.575,0,0,0-1.092-.207l-22.052,45.9a1.944,1.944,0,0,1-3.506,0l-22.052-45.9A.574.574,0,0,0,3982.331,2139.282Z" stroke="none"/>
        <path d="M 3977.764892578125 2117.48291015625 C 3976.7451171875 2117.48291015625 3975.89892578125 2118.27001953125 3975.823974609375 2119.287109375 L 3970.449951171875 2192.705078125 C 3970.367919921875 2193.8330078125 3971.260986328125 2194.79296875 3972.39111328125 2194.79296875 L 3976.4560546875 2194.79296875 C 3977.47509765625 2194.79296875 3978.322021484375 2194.006103515625 3978.39697265625 2192.988037109375 L 3982.3310546875 2139.281982421875 C 3982.371826171875 2138.696044921875 3983.166259765625 2138.546630859375 3983.419921875 2139.074951171875 L 4005.471923828125 2184.97412109375 C 4006.178955078125 2186.44580078125 4008.27392578125 2186.44580078125 4008.97802734375 2184.97412109375 L 4031.030029296875 2139.074951171875 C 4031.285888671875 2138.543701171875 4032.078125 2138.696044921875 4032.1220703125 2139.281982421875 L 4036.052978515625 2192.988037109375 C 4036.1279296875 2194.006103515625 4036.972900390625 2194.79296875 4037.992919921875 2194.79296875 L 4042.05810546875 2194.79296875 C 4043.18798828125 2194.79296875 4044.08203125 2193.8330078125 4043.9990234375 2192.705078125 L 4038.631103515625 2119.287109375 C 4038.556884765625 2118.27001953125 4037.7099609375 2117.48291015625 4036.68994140625 2117.48291015625 L 4033.81689453125 2117.48291015625 C 4033.069091796875 2117.48291015625 4032.387939453125 2117.912109375 4032.06201171875 2118.587890625 L 4007.7451171875 2169.199951171875 C 4007.536376953125 2169.63330078125 4006.919189453125 2169.6328125 4006.7099609375 2169.199951171875 L 3982.39208984375 2118.587890625 C 3982.06689453125 2117.9140625 3981.385986328125 2117.48291015625 3980.637939453125 2117.48291015625 L 3977.764892578125 2117.48291015625 M 3977.764892578125 2116.48291015625 L 3980.637939453125 2116.48291015625 C 3981.760986328125 2116.48291015625 3982.802978515625 2117.138671875 3983.292724609375 2118.1533203125 L 4007.2275390625 2167.968017578125 L 4031.16064453125 2118.15478515625 C 4031.650634765625 2117.138671875 4032.693115234375 2116.48291015625 4033.81689453125 2116.48291015625 L 4036.68994140625 2116.48291015625 C 4038.225830078125 2116.48291015625 4039.5166015625 2117.6826171875 4039.62841796875 2119.21435546875 L 4044.996337890625 2192.632080078125 C 4045.05615234375 2193.445068359375 4044.77197265625 2194.254150390625 4044.216796875 2194.851806640625 C 4043.6611328125 2195.449951171875 4042.874267578125 2195.79296875 4042.05810546875 2195.79296875 L 4037.992919921875 2195.79296875 C 4036.458740234375 2195.79296875 4035.16845703125 2194.59326171875 4035.0556640625 2193.0615234375 L 4031.2412109375 2140.94482421875 L 4009.87939453125 2185.4072265625 C 4009.38671875 2186.437255859375 4008.36962890625 2187.078125 4007.22607421875 2187.078125 C 4006.083251953125 2187.078125 4005.065673828125 2186.437744140625 4004.570556640625 2185.406982421875 L 3983.21142578125 2140.950439453125 L 3979.394287109375 2193.06103515625 C 3979.281494140625 2194.59326171875 3977.990966796875 2195.79296875 3976.4560546875 2195.79296875 L 3972.39111328125 2195.79296875 C 3971.575439453125 2195.79296875 3970.789306640625 2195.450439453125 3970.233642578125 2194.85302734375 C 3969.67822265625 2194.255615234375 3969.393310546875 2193.4462890625 3969.45263671875 2192.632568359375 L 3974.82666015625 2119.214111328125 C 3974.939453125 2117.682373046875 3976.230224609375 2116.48291015625 3977.764892578125 2116.48291015625 Z" stroke="none" fill="rgba(0,0,0,0.15)"/>
      </g>
    </g>
    <text id="esports" transform="translate(960 501)" fill="#2eefc9" stroke="rgba(0,0,0,0.15)" stroke-width="1" font-size="30" font-family="FuturaBT-Light, Futura" font-weight="300" letter-spacing="0.2em"><tspan x="-61.843" y="0">esports</tspan></text>
  </g>
</svg>
